<?xml version="1.0" encoding="UTF-8"?>
<svg width="27px" height="28px" viewBox="0 0 27 28" version="1.1" xmlns="http://www.w3.org/2000/svg" xmlns:xlink="http://www.w3.org/1999/xlink">
    <!-- Generator: Sketch 61.1 (89650) - https://sketch.com -->
    <title>U</title>
    <desc>Created with Sketch.</desc>
    <g id="Web" stroke="none" stroke-width="1" fill="none" fill-rule="evenodd">
        <g id="Dashboard" transform="translate(-31.000000, -15.000000)" fill="#FFFFFF" fill-rule="nonzero">
            <g id="Header">
                <path d="M54.7856022,16.9165047 C54.9297689,16.8680487 54.9778244,16.7711368 54.9297689,16.6257689 C54.8456717,16.3834891 54.8636925,16.1593802 54.9838314,15.9534424 C55.1159842,15.6869346 55.2781717,15.5173387 55.4703939,15.4446547 C55.6025466,15.3961988 55.6445953,15.2992868 55.5965397,15.1539189 C55.5364703,15.0085511 55.4403591,14.9661521 55.3082064,15.026722 C55.0919564,15.11152 54.9357758,15.2023749 54.8396647,15.2992868 C54.7916092,15.3477428 54.7435536,15.4204268 54.6954981,15.5173387 L54.5693522,15.7535615 C54.3891439,16.0685253 54.3651161,16.413774 54.4972689,16.7893078 C54.5453245,16.9346757 54.6414356,16.9770746 54.7856022,16.9165047 Z M35.1789363,17.6251732 C35.311089,17.5524892 35.3471307,17.4495203 35.2870613,17.3162664 L35.0888321,16.8983337 L34.9086238,16.480401 L34.8545613,16.3168621 L34.8185196,16.1714942 C34.8065057,16.0503543 34.7584502,15.9594994 34.6743529,15.8989294 C34.6262974,15.8504734 34.5722349,15.8262455 34.5121654,15.8262455 C34.452096,15.8383595 34.3980335,15.8625874 34.349978,15.8989294 C34.3139363,15.9473854 34.2959155,15.9958413 34.2959155,16.0442973 C34.2839016,16.1048673 34.3019224,16.1593802 34.349978,16.2078362 C34.3740057,16.2320642 34.3920266,16.2744631 34.4040404,16.3350331 L34.4040404,16.46223 C34.4280682,16.5470279 34.4761238,16.6560539 34.5482071,16.7893078 C34.6082766,16.8862197 34.668346,17.0134166 34.7284154,17.1708985 L34.8906029,17.5524892 C34.9506724,17.6857431 35.0467835,17.7099711 35.1789363,17.6251732 Z M56.749873,18.1339608 C56.8700119,18.0491629 56.8880327,17.9461939 56.8039355,17.825054 C56.7678938,17.7644841 56.8099424,17.6554581 56.9300813,17.4979763 L57.0201855,17.4071213 L57.0922688,17.3162664 C57.1523383,17.2556964 57.1883799,17.2132975 57.2003938,17.1890695 L57.2364355,17.0800436 L57.2544563,16.9710176 C57.2784841,16.8862197 57.3085188,16.8256497 57.3445605,16.7893078 L57.4166438,16.6802818 L57.506748,16.5894269 C57.5908452,16.516743 57.6509146,16.450116 57.6869563,16.3895461 C57.722998,16.3289761 57.7290049,16.2744631 57.7049771,16.2260072 C57.6809493,16.1775512 57.6389007,16.1412092 57.5788313,16.1169813 C57.5307757,16.0806393 57.4767132,16.0685253 57.4166438,16.0806393 C57.3565744,16.1048673 57.3085188,16.1472662 57.2724771,16.2078362 L57.1643521,16.3350331 L57.0562271,16.444059 C56.960116,16.528857 56.9000466,16.6136549 56.8760188,16.6984528 C56.7919216,16.9165047 56.7078244,17.0739866 56.6237272,17.1708985 C56.5035883,17.3283804 56.4194911,17.4737483 56.3714355,17.6070022 C56.32338,17.788712 56.3474077,17.9522509 56.4435188,18.0976188 C56.5276161,18.2187587 56.6297341,18.2308727 56.749873,18.1339608 Z M52.0284148,17.2072405 C52.1485537,17.1224425 52.1725815,17.0134166 52.1004982,16.8801627 C52.0764704,16.8317067 52.1004982,16.7529658 52.1725815,16.6439399 L52.2807065,16.516743 C52.3167481,16.468287 52.3407759,16.438002 52.3527898,16.425888 C52.3888315,16.3653181 52.3948384,16.3047481 52.3708106,16.2441782 C52.3467829,16.1957222 52.3047343,16.1593802 52.2446648,16.1351522 C52.1966093,16.1109243 52.1425468,16.1048673 52.0824773,16.1169813 C52.0224079,16.1290952 51.9743523,16.1654372 51.9383107,16.2260072 L51.8662273,16.3350331 L51.794144,16.425888 C51.7340746,16.510686 51.6920259,16.5773129 51.6679982,16.6257689 C51.6079287,16.7832508 51.6259496,16.9589036 51.7220607,17.1527275 C51.794144,17.2859814 51.8962621,17.3041524 52.0284148,17.2072405 Z M33.593103,18.3701836 C33.593103,18.2248157 33.5210196,18.1400178 33.376853,18.1157898 C33.3287974,18.1157898 33.2747349,18.0794478 33.2146655,18.0067639 L33.1425822,17.915909 L32.944353,17.7160281 L32.8182072,17.5888312 L32.6920613,17.4616343 L32.5659155,17.3526084 C32.4577905,17.2678104 32.3496655,17.2193545 32.2415405,17.2072405 C32.1694572,17.1951265 32.1153947,17.2132975 32.079353,17.2617534 C32.0433114,17.2980954 32.0252905,17.3465514 32.0252905,17.4071213 C32.0252905,17.4676913 32.0433114,17.5222042 32.079353,17.5706602 C32.1153947,17.6191162 32.1694572,17.6494011 32.2415405,17.6615151 C32.2295266,17.6615151 32.2355336,17.6736291 32.2595614,17.6978571 L32.295603,17.7160281 L32.3316447,17.7523701 L32.4397697,17.861396 L32.6920613,18.0976188 L32.836228,18.2611577 L32.9984155,18.4065256 C33.1185544,18.5034375 33.2447002,18.5579505 33.376853,18.5700645 C33.5210196,18.5942925 33.593103,18.5276655 33.593103,18.3701836 Z M51.6139357,42.7011351 C53.9926856,42.0590935 55.7166786,40.4055337 56.7859147,37.7404557 C57.2664702,36.5290565 57.608866,34.8330978 57.8131021,32.6525793 C58.257616,27.8917808 57.9092132,23.6034279 56.7678938,19.7875206 C56.7318522,19.6663807 56.6657758,19.5452408 56.5696647,19.4241009 C56.4735536,19.302961 56.3774425,19.22422 56.2813313,19.187878 C56.0410536,19.1273081 55.7587272,19.0727951 55.4343522,19.0243392 L55.0018522,18.9516552 L54.5693522,18.8971422 L53.8845606,18.8244583 L53.1817481,18.7699453 L52.7312273,18.7154324 L52.2987273,18.6790904 C51.9503246,18.6427484 51.6559843,18.6306344 51.4157065,18.6427484 C50.935151,18.6669764 50.2383454,18.7154324 49.3252899,18.7881163 L48.2800816,18.8608003 L47.2528942,18.9334842 C46.628172,18.9577122 46.4179289,19.254505 46.622165,19.8238626 C46.8143872,20.3689922 46.9225122,20.8232669 46.94654,21.1866866 C46.9671352,21.4981892 46.978904,21.8986926 46.9818461,22.3881968 L46.9825817,24.1122155 L47.054665,26.0565111 L47.1267483,28.0008067 C47.1988317,29.5756255 47.2348733,30.8778796 47.2348733,31.9075689 C47.2589011,33.3370198 46.844422,34.530248 45.9914359,35.4872533 C45.0903942,35.0026936 44.5858109,34.1910562 44.4776859,33.052341 C44.249422,30.8960506 44.039179,28.1219466 43.8469568,24.730029 C43.822929,24.2091274 43.8169221,23.5791999 43.8289359,22.8402464 L43.8649776,21.8953551 L43.9010193,20.9322928 C43.9130332,20.5083031 43.6907762,20.3144792 43.2342485,20.3508212 C42.9098735,20.3750492 42.5674777,20.3265932 42.207061,20.2054533 C40.5731722,19.6603237 38.9512972,19.5270698 37.3414362,19.8056916 L35.4132071,20.1509403 L33.484978,20.5143601 C33.1365752,20.587044 33.0044224,20.8172099 33.0885197,21.2048576 C33.1846308,21.6530753 33.2447002,22.010438 33.268728,22.2769458 L33.3227905,22.9311013 L33.3588322,23.5852569 L33.7192488,27.4556771 L34.0796655,31.3079263 L34.1877905,32.6344083 C34.235846,33.143196 34.2839016,33.5792997 34.3319571,33.9427194 C34.4641099,34.9239527 34.668346,35.7779891 34.9446654,36.5048286 C36.0859848,39.4243004 38.008207,41.1747722 40.7113319,41.7562438 L40.9816444,41.7925857 C41.1017833,41.8168137 41.1978944,41.8410417 41.2699777,41.8652697 C41.4742138,41.9258396 41.6123735,42.0590935 41.6844569,42.2650314 C41.7084846,42.3134874 41.7685541,42.3498293 41.8646652,42.3740573 L41.990811,42.3922283 L42.1169568,42.4103993 L44.5677901,42.6829641 C45.5048734,42.779876 46.3218178,42.858617 47.0186233,42.9191869 C48.9528594,43.0766688 50.4846302,43.0039849 51.6139357,42.7011351 Z M32.1334155,20.0782564 C32.2775822,20.0903704 32.3496655,20.0176864 32.3496655,19.8602046 C32.3496655,19.7027227 32.2775822,19.6179247 32.1334155,19.6058107 C32.08536,19.6058107 32.0192836,19.5573548 31.9351864,19.4604428 L31.8450822,19.3514169 C31.8090405,19.3150749 31.7790058,19.290847 31.754978,19.278733 C31.5747697,19.1333651 31.3765406,19.1030801 31.1602906,19.187878 C31.00411,19.248448 30.9620614,19.3574739 31.0341447,19.5149558 C31.0581725,19.5755258 31.1002211,19.6300387 31.1602906,19.6784947 L31.2503947,19.7511786 L31.3404989,19.8056916 C31.43661,19.8783755 31.5267142,19.8662615 31.6108114,19.7693496 L31.646853,19.8056916 C31.8030336,19.9631735 31.9652211,20.0540284 32.1334155,20.0782564 Z M55.884873,20.3144792 L52.4609148,20.3144792 C52.4609148,20.2417953 52.4549079,20.1327694 52.442894,19.9874015 L52.4248731,19.7693496 L52.3888315,19.5149558 C52.653137,19.6482097 52.9474773,19.7330076 53.2718523,19.7693496 C53.4760884,19.8056916 53.7764356,19.8238626 54.1728939,19.8238626 C54.9658106,19.8359766 55.5424772,19.9328885 55.9028939,20.1145984 L55.884873,20.3144792 Z M40.4229986,40.6841555 C38.5248042,40.1753679 37.0831376,38.7883159 36.0979987,36.5229995 C35.5934154,35.3600564 35.2510196,33.7367815 35.0708113,31.6531751 L34.7103946,27.8917808 L34.349978,24.1485575 C34.2778946,23.373262 34.2298391,22.6040236 34.2058113,21.8408421 C34.2058113,21.7681582 34.235846,21.6833602 34.2959155,21.5864483 C34.3559849,21.4895364 34.4100474,21.4350234 34.4581029,21.4229094 L36.3502904,21.0231477 L38.2604986,20.641557 C38.2604986,20.641557 38.3385889,20.647614 38.4947695,20.659728 L38.4947695,22.2769458 C38.5067834,22.9189873 38.5007764,23.452003 38.4767486,23.8759927 C38.3085542,27.2921382 38.6629639,30.5568588 39.5399778,33.6701546 C39.840325,34.7240718 40.3268875,35.5902222 40.9996652,36.2686057 C42.1169568,37.3830929 43.3844221,37.7767976 44.8020609,37.4497199 C46.2317136,37.1226421 47.1808108,36.2080358 47.6493525,34.7059008 C47.9737275,33.7125536 48.135915,32.7434343 48.135915,31.7985429 C48.135915,30.6840557 48.1118872,29.4060297 48.0638316,27.9644647 L47.919665,24.1485575 C47.9076511,23.5913139 47.8716094,22.9068734 47.81154,22.0952359 L47.7394566,21.0594897 L47.6673733,20.0055724 C48.1719566,19.9571165 48.8026858,19.8904895 49.5595607,19.8056916 L50.496644,19.7148367 L51.4517482,19.6058107 L51.5418523,20.1872823 L51.6139357,20.7687539 C51.6740051,21.2290856 51.7100468,21.6106763 51.7220607,21.9135261 L51.8662273,24.5119772 L51.9923732,27.1104283 C52.0884843,29.1213509 52.1485537,30.8475946 52.1725815,32.2891596 C52.2086232,35.3418854 51.037269,37.7707406 48.6585191,39.5757253 L47.8295608,40.2662228 C47.4931719,40.5327306 47.1988317,40.7265545 46.94654,40.8476944 C46.73029,40.9688343 46.4539706,41.0536323 46.1175817,41.1020882 L45.6850817,41.1566012 L45.2345609,41.1929432 C43.7087971,41.3019691 42.104943,41.1323732 40.4229986,40.6841555 Z M42.8738318,21.5137644 L39.4318528,20.7869249 L39.4859153,20.5507021 L42.9098735,21.3502255 L42.8738318,21.5137644 Z M52.6050815,21.8226711 C52.5930676,21.6167333 52.5630329,21.2957125 52.5149773,20.8596088 L54.1188314,20.8596088 C54.7315397,20.8596088 55.2541439,20.8717228 55.6866439,20.8959508 C55.7707411,20.8959508 55.8728591,20.9444068 55.992998,21.0413187 L56.1371647,21.1685156 L56.2813313,21.2957125 L56.1912272,21.4592514 L54.4251856,21.6409613 L52.6050815,21.8226711 Z M42.8918526,22.6403655 C41.882686,22.4586557 40.7353597,22.2527178 39.4498736,22.022552 L39.4498736,21.3865675 L39.8283111,21.3865675 L39.8283111,21.3865675 L41.125811,21.6591323 L42.423311,21.9316971 C42.8918526,22.016495 43.0480332,22.2527178 42.8918526,22.6403655 Z M56.5876855,23.1854952 L56.101123,23.1128112 L55.6325814,23.0582982 C55.2601508,22.9977283 54.9537967,22.9553293 54.7135189,22.9311013 L53.8665398,22.8765884 C53.5061231,22.8523604 53.2237967,22.8341894 53.0195606,22.8220754 C52.9594912,22.8099614 52.8874079,22.7736195 52.8033106,22.7130495 L52.6951856,22.6221946 L52.5870606,22.5495106 L52.659144,22.2951168 L54.4792481,22.1134069 C55.2481369,22.028609 55.8668522,21.961982 56.3353938,21.9135261 L56.4074772,22.2406038 L56.4615397,22.5495106 C56.5095952,22.8039044 56.5516438,23.0158993 56.5876855,23.1854952 Z M42.9098735,23.7669667 L41.2699777,23.45806 C40.6332416,23.33692 40.0926166,23.2278941 39.6481028,23.1309822 C39.5880333,23.1188682 39.5279639,23.0643552 39.4678944,22.9674433 L39.3777903,22.8402464 L39.3057069,22.7312205 L39.4678944,22.5313396 L40.8194569,22.7857334 L42.1710193,23.0401273 C42.423311,23.0885832 42.6035193,23.1552102 42.7116443,23.2400081 C42.8678249,23.361148 42.9339013,23.5368009 42.9098735,23.7669667 Z M56.857998,25.7112623 L54.8576856,25.3660136 L53.8304981,25.1843037 L52.7852898,25.0025938 C52.7732759,24.80877 52.761262,24.5362052 52.7492481,24.1848994 L52.7312273,23.7487958 C52.7192134,23.5670859 52.7132065,23.39749 52.7132065,23.2400081 C53.2298037,23.3005781 53.8965745,23.373262 54.7135189,23.45806 L56.6597688,23.6761118 L56.6958105,23.8759927 L56.7318522,24.0758735 C56.743866,24.2212414 56.7618869,24.3544953 56.7859147,24.4756352 C55.992998,24.3302673 55.1460189,24.1667284 54.2449772,23.9850186 L53.7223731,23.8759927 L53.1817481,23.8033087 C53.1457065,23.7911947 53.091644,23.8093657 53.0195606,23.8578217 L52.9294565,23.9123346 L52.8573731,23.9486766 L52.8934148,24.0395315 L52.9474773,24.1485575 C52.983519,24.2212414 53.0195606,24.2636404 53.0556023,24.2757544 C53.1877551,24.2999824 53.3679634,24.3302673 53.5962273,24.3666093 L54.1368523,24.4574642 L55.3082064,24.6936871 L56.4615397,24.9662519 C56.6777897,25.0268218 56.8039355,25.0934488 56.8399772,25.1661327 C56.8640049,25.2267027 56.8700119,25.4084126 56.857998,25.7112623 Z M42.8377902,25.0025938 L41.342061,24.7118581 L39.8463319,24.4392933 C39.4018181,24.3666093 39.2756722,24.0758735 39.4678944,23.5670859 L41.0897694,23.9305056 C41.7144916,24.0879875 42.2491096,24.2272984 42.6936235,24.3484383 C42.7536929,24.3605523 42.8137624,24.4332363 42.8738318,24.5664902 L42.9278943,24.7482 L42.9999776,24.9117389 L42.8377902,25.0025938 Z M42.8918526,26.3109049 L41.1618527,25.9111432 L39.4318528,25.5113815 L39.4318528,24.857226 L40.8374777,25.1116198 L42.2250818,25.3478426 C42.5854985,25.4205265 42.7957415,25.4992675 42.855811,25.5840654 C42.9158804,25.6688634 42.9278943,25.9111432 42.8918526,26.3109049 Z M57.0021647,28.891185 L56.4615397,28.7094752 C56.2452897,28.6489052 56.0650814,28.6065062 55.9209147,28.5822783 C54.8636925,28.3884544 54.0407411,28.2673145 53.4520606,28.2188585 C53.1276856,28.1946305 52.9594912,28.0492626 52.9474773,27.7827548 C52.9474773,27.4920191 52.9294565,27.1225423 52.8934148,26.6743246 L52.8573731,26.0928531 L52.8033106,25.4568685 C53.0556023,25.5053245 53.3919912,25.5719514 53.8124773,25.6567494 L54.7675814,25.8384592 C55.5004286,25.9838271 56.1191438,26.1049671 56.6237272,26.201879 C56.8760188,26.2503349 57.0021647,26.3775319 57.0021647,26.5834697 L57.0021647,26.7288376 L56.9841438,26.8560345 C56.9721299,26.9650604 56.9721299,27.0438014 56.9841438,27.0922573 L55.3262272,26.8196925 L53.6683106,26.5471277 C53.6082412,26.5471277 53.5241439,26.5713557 53.4160189,26.6198117 L53.2898731,26.6924956 L53.1457065,26.7470086 L53.2718523,26.8196925 L53.3799773,26.8923765 C53.4760884,26.9529464 53.5541787,26.9892884 53.6142481,27.0014024 L55.3082064,27.3103092 L57.0021647,27.619216 L57.0021647,28.891185 Z M42.9098735,27.4920191 L39.4318528,26.9468894 L39.4318528,26.0928531 L39.7382069,26.129195 L40.0085194,26.165537 L41.233936,26.4562728 L42.4413318,26.7470086 C42.633554,26.8075785 42.7717138,26.8802625 42.855811,26.9650604 C42.963936,27.0983143 42.9819568,27.2739672 42.9098735,27.4920191 Z M42.9459151,28.6186202 L41.3781027,28.3278844 C40.7653944,28.2188585 40.2427902,28.1340606 39.8102903,28.0734906 C39.618068,28.0492626 39.509943,27.9886927 39.4859153,27.8917808 C39.4739014,27.8190968 39.4919222,27.6858429 39.5399778,27.4920191 L41.125811,27.7282419 C41.7385194,27.8251538 42.2671304,27.9160087 42.7116443,28.0008067 C42.7717138,28.0129207 42.8377902,28.0734906 42.9098735,28.1825166 L43.0179985,28.3278844 L43.1081026,28.4732523 L42.9459151,28.6186202 Z M43.3423735,31.6350041 L41.558311,31.1807294 C40.8374777,30.9990195 40.2307764,30.8475946 39.7382069,30.7264547 L39.7201861,30.5629158 L39.7021653,30.363035 C39.6661236,30.1813251 39.6360889,30.0117292 39.6120611,29.8542473 L39.8102903,29.8542473 L39.9904986,29.8360764 C40.1346652,29.8360764 40.2487972,29.8481904 40.3328944,29.8724183 L41.3060194,30.1813251 L42.2971652,30.5265739 L42.4953943,30.5992578 C42.5794915,30.6234858 42.6515749,30.6295428 42.7116443,30.6174288 C42.747686,30.6174288 42.7957415,30.5932008 42.855811,30.5447448 C42.8918526,30.5084029 42.9278943,30.4599469 42.963936,30.399377 C42.9759499,30.387263 42.957929,30.350921 42.9098735,30.290351 C42.8738318,30.2297811 42.8317832,30.1934391 42.7837277,30.1813251 L42.0268527,29.8905893 C41.7265055,29.7815634 41.4682069,29.6907085 41.2519569,29.6180245 C40.6632763,29.4363146 40.1106375,29.3454597 39.5940403,29.3454597 L39.5579986,28.963869 C39.5459847,28.7942731 39.5339708,28.6549622 39.5219569,28.5459363 L40.3328944,28.6731332 L41.125811,28.8185011 C41.7265055,28.915413 42.2431027,29.006268 42.6756027,29.0910659 C42.7596999,29.1031799 42.849804,29.1516359 42.9459151,29.2364338 C43.0420263,29.3091177 43.0960888,29.3818017 43.1081026,29.4544856 C43.1441443,29.7452214 43.1861929,30.1025842 43.2342485,30.5265739 L43.288311,31.0717035 L43.3423735,31.6350041 Z M56.9841438,30.0722992 L55.0559147,29.9814443 L54.0827898,29.9269313 L53.091644,29.8724183 L53.091644,28.8185011 C53.6683106,28.6367912 54.3290745,28.6307342 55.0739356,28.8003301 C55.2901855,28.8487861 55.6085536,28.939641 56.0290397,29.0728949 L56.4975813,29.2182628 L56.9841438,29.3454597 L56.9841438,30.0722992 Z M56.9120605,32.1437917 L56.4615397,32.0165948 L56.0290397,31.8893979 C55.6926508,31.8045999 55.4103244,31.731916 55.1820605,31.671346 C54.6414356,31.5380921 54.058762,31.4108952 53.4340398,31.2897553 C53.2658453,31.2655273 53.1697342,31.2110144 53.1457065,31.1262164 C53.1216787,31.0293045 53.1276856,30.7991387 53.1637273,30.4357189 L53.6683106,30.4175479 L54.1548731,30.4175479 C54.5273036,30.4175479 54.8396647,30.4236049 55.0919564,30.4357189 C55.344248,30.4478329 55.6566091,30.4660039 56.0290397,30.4902319 L56.5156022,30.5447448 L57.0201855,30.5810868 L56.966123,31.3442683 L56.9300813,31.725859 L56.9120605,32.1437917 Z M43.4685193,32.5617244 L41.7204985,32.2528176 C41.023693,32.1195637 40.4410194,32.0165948 39.9724778,31.9439108 C39.9604639,31.8833409 39.942443,31.8045999 39.9184153,31.707688 L39.8823736,31.5804911 L39.8463319,31.4169522 C40.3268875,31.3563823 40.9215749,31.4411802 41.6303944,31.671346 L42.0448735,31.8167139 L42.4773735,31.9439108 C42.8137624,32.0529368 43.1141096,32.1135067 43.3784151,32.1256207 L43.4144568,32.3255016 L43.4685193,32.5617244 Z M56.7859147,33.2885639 L54.9297689,32.8888022 L53.0736231,32.4890404 C53.1096648,32.2588746 53.1396995,32.0468798 53.1637273,31.8530559 C53.6562967,31.780372 54.275012,31.8651699 55.0198731,32.1074497 L55.9209147,32.3981855 C56.2693175,32.5072114 56.5816786,32.5738384 56.857998,32.5980664 C56.8339702,32.8766882 56.8099424,33.106854 56.7859147,33.2885639 Z M43.6487276,33.6701546 L42.9459151,33.5611287 L42.2431027,33.4521028 C41.6904638,33.3673048 41.2219222,33.3067349 40.8374777,33.2703929 C40.3569222,33.2219369 40.1286583,32.9736001 40.1526861,32.5253824 L40.5851861,32.5253824 L41.7024777,32.7252633 C42.1349777,32.7979472 42.5074082,32.8706312 42.8197693,32.9433151 C43.072061,33.0038851 43.2642832,33.076569 43.396436,33.161367 C43.5766443,33.2825069 43.6607415,33.4521028 43.6487276,33.6701546 Z M56.5876855,34.7604138 L54.7675814,34.3969941 L53.8485189,34.2152842 L52.9114356,34.0335743 L52.9474773,33.7791805 L52.983519,33.4884447 L53.0556023,32.9251441 L53.3439356,33.0159991 L53.5962273,33.106854 C53.8004634,33.167424 53.9746648,33.2158799 54.1188314,33.2522219 L54.5873731,33.3430768 L55.0559147,33.4157608 C55.452373,33.4884447 55.7587272,33.5490147 55.9749772,33.5974706 C56.3954633,33.6943826 56.6297341,33.7973515 56.6777897,33.9063774 C56.7378591,34.0032894 56.7078244,34.2879682 56.5876855,34.7604138 Z M44.0992484,34.8876107 L43.3603943,34.8330978 L42.6575818,34.7967558 C42.104943,34.7482998 41.6424082,34.6937869 41.2699777,34.6332169 C41.1498388,34.6089889 41.0116791,34.512077 40.8554986,34.3424811 L40.6572694,34.1062583 L40.4590402,33.9063774 L40.6032069,33.6156416 L42.1710193,33.9608904 C42.7837277,34.1062583 43.3123387,34.2395122 43.7568526,34.3606521 C43.8169221,34.3727661 43.8769915,34.439393 43.9370609,34.560533 L44.0091443,34.7240718 L44.0992484,34.8876107 Z M56.425498,35.887015 L54.5513314,35.6144502 L52.6951856,35.3418854 C52.6471301,34.7725278 52.8934148,34.542362 53.4340398,34.6513879 L54.9658106,34.9784657 L56.533623,35.3237144 L56.4795605,35.6144502 L56.425498,35.887015 Z M44.8200817,35.9960409 C44.687929,35.9839269 44.5137276,35.9596989 44.2974776,35.923357 L43.7748735,35.850673 C43.3543874,35.8022171 43.0240054,35.814331 42.7837277,35.887015 C42.4473388,35.9960409 42.1770263,35.9596989 41.9727902,35.7779891 L41.8466444,35.6507922 L41.7204985,35.5054243 C41.6243874,35.3721704 41.5402902,35.2752584 41.4682069,35.2146885 L41.9187277,35.2510305 L42.3512277,35.2510305 C42.7236582,35.2631444 43.0119915,35.2813154 43.2162276,35.3055434 C43.8890054,35.3661134 44.4356373,35.5417662 44.8561234,35.832502 L44.8200817,35.9960409 Z M55.452373,37.1044711 C55.1400119,37.0439012 54.7255328,36.9712172 54.2089356,36.8864193 L53.5962273,36.7773934 L52.983519,36.6865384 C52.8874079,36.6623104 52.7732759,36.6259685 52.6411231,36.5775125 L52.4969565,36.5229995 L52.334769,36.4503156 C52.3467829,35.941528 52.6231023,35.7477041 53.1637273,35.868844 C53.5721995,35.9657559 54.0767828,36.0626679 54.6774772,36.1595798 L55.452373,36.2867767 L56.2272688,36.4139736 C56.2272688,36.9833312 55.9689702,37.213497 55.452373,37.1044711 Z M55.3802897,38.594492 L54.4251856,38.4309532 L53.4881023,38.2674143 C52.6831717,38.1341604 52.0464357,38.0251345 51.577894,37.9403365 C51.6259496,37.8555386 51.6740051,37.7586266 51.7220607,37.6496007 L51.794144,37.5224038 L51.8482065,37.3952069 C51.9563315,37.213497 52.0284148,37.0863001 52.0644565,37.0136162 C53.2898731,37.20744 54.5513314,37.4133779 55.8488314,37.6314297 C55.776748,37.7889116 55.6926508,37.9585075 55.5965397,38.1402174 L55.4884147,38.3764402 L55.3802897,38.594492 Z M53.7223731,40.102684 L50.8390399,39.0124247 C51.0673037,38.4672951 51.4457412,38.2976993 51.9743523,38.5036371 C52.2026162,38.600549 52.5029634,38.667176 52.875394,38.703518 L53.3439356,38.7398599 L53.7944564,38.7762019 C53.950637,38.8004299 54.1548731,38.8307149 54.4071647,38.8670568 L54.7315397,38.9397408 C54.8877203,38.9639688 55.0198731,38.9821398 55.127998,38.9942538 C55.0439008,39.0790517 54.9477897,39.1820206 54.8396647,39.3031605 L54.6954981,39.4485284 L54.5693522,39.5757253 C54.3891439,39.7695492 54.2329634,39.9270311 54.1008106,40.048171 C54.0647689,40.084513 54.0046995,40.108741 53.9206023,40.1208549 C53.8485189,40.1329689 53.7824425,40.1269119 53.7223731,40.102684 Z M52.6231023,40.9930623 C52.2146301,40.9082644 51.7220607,40.7871245 51.145394,40.6296426 L50.4065399,40.4115907 L49.6316441,40.1935389 C50.076158,39.5151554 50.6287968,39.3395025 51.2895607,39.6665803 L51.8121648,39.9028031 L52.334769,40.1208549 C52.7792829,40.3146788 53.1457065,40.4963887 53.4340398,40.6659846 L53.2177898,40.7750105 L53.0195606,40.8840364 C52.8513662,40.9809483 52.7192134,41.0172903 52.6231023,40.9930623 Z M50.1902899,41.5745339 L49.3613316,41.2837981 C49.0369566,41.1626582 48.7726511,41.0839173 48.5684149,41.0475753 C48.9168177,40.5509016 49.319283,40.4297617 49.7758107,40.6841555 C50.0281024,40.8295234 50.3704982,40.9627773 50.8029982,41.0839173 L51.3796648,41.2292851 C51.6199426,41.3019691 51.8181718,41.362539 51.9743523,41.410995 C51.4337273,41.7017308 50.8390399,41.7562438 50.1902899,41.5745339 Z M49.4514358,41.9016117 L47.5232067,41.9016117 L47.3970608,41.7017308 L47.5412275,41.5745339 L47.6673733,41.447337 C47.7754983,41.3504251 47.8415747,41.2898551 47.8656025,41.2656271 C48.4783108,41.5079069 49.0069219,41.7199018 49.4514358,41.9016117 Z" id="U"></path>
            </g>
        </g>
    </g>
</svg>